<svg width="104" height="104" viewBox="0 0 104 104" fill="none" xmlns="http://www.w3.org/2000/svg">
<path d="M1.11914 51.7875C1.11914 65.3296 6.38355 78.0664 15.9378 87.636C25.492 97.2057 38.2091 102.479 51.7308 102.479C65.2525 102.479 77.9696 97.2057 87.5238 87.636C97.078 78.0664 102.342 65.3296 102.342 51.7875C102.342 38.2454 97.078 25.5085 87.5238 15.9389C77.9696 6.36923 65.2525 1.0957 51.7308 1.0957C38.2091 1.0957 25.492 6.36923 15.9378 15.9389C6.38355 25.5085 1.11914 38.2454 1.11914 51.7875ZM51.7308 98.4916C26.0301 98.4916 5.10361 77.5336 5.10361 51.7875C5.10361 26.0413 26.0301 5.08337 51.7308 5.08337C77.4315 5.08337 98.358 26.0413 98.358 51.7875C98.358 77.5336 77.4315 98.4916 51.7308 98.4916Z" fill="url(#paint0_linear_558_156)" stroke="url(#paint1_linear_558_156)" stroke-width="2" stroke-miterlimit="10"/>
<path d="M29.3338 52.0397C29.3139 53.4509 30.4053 54.564 31.7745 54.564H53.1468V62.2361C53.1468 64.1442 55.1708 65.3169 56.8178 64.3628L71.9189 55.6373C74.4786 54.1665 74.4786 50.4895 71.9189 49.0186L56.8178 40.2931C55.1906 39.339 53.1468 40.5117 53.1468 42.4198V49.6744H31.9142C30.5847 49.6943 29.3933 50.7279 29.3338 52.0397Z" fill="url(#paint2_linear_558_156)"/>
<defs>
<linearGradient id="paint0_linear_558_156" x1="51.7308" y1="2.0957" x2="51.7308" y2="101.479" gradientUnits="userSpaceOnUse">
<stop stop-color="#FFAE0C"/>
<stop offset="1" stop-color="#FFD253"/>
</linearGradient>
<linearGradient id="paint1_linear_558_156" x1="51.7308" y1="2.0957" x2="51.7308" y2="101.479" gradientUnits="userSpaceOnUse">
<stop stop-color="#FFAE0C"/>
<stop offset="1" stop-color="#FFD253"/>
</linearGradient>
<linearGradient id="paint2_linear_558_156" x1="51.5861" y1="39.9543" x2="51.5861" y2="64.7015" gradientUnits="userSpaceOnUse">
<stop stop-color="#FFAE0C"/>
<stop offset="1" stop-color="#FFD253"/>
</linearGradient>
</defs>
</svg>
